name C:\Users\u0101727\Documents\MyRepositories\upper-imu-dc\OpenSim\subject0\MA\train_motion_filt.mot									
datacolumns 10									
datarows 88									
range 7.26 8.13									
endheader 									
time	clav_prot	clav_elev	scapula_abduction	scapula_elevation	scapula_upward_rot	scapula_winging	plane_elv	shoulder_elv	axial_rot
7.26	-30.21666195	-2.58748924	-22.76710893	-4.55996428	18.23925309	2.89623512	-28.71469702	27.56004897	17.11668513
7.27	-30.35559948	-2.4681038	-22.81686587	-4.56237945	18.58005865	2.74201169	-28.52173459	28.08016472	16.49972855
7.28	-30.50247127	-2.34935584	-22.87621922	-4.56634616	18.92438737	2.58491742	-28.33182531	28.60846571	15.87993217
7.29	-30.6576664	-2.23206106	-22.94643134	-4.57213804	19.27077212	2.42542063	-28.14432571	29.14391691	15.25944723
7.3	-30.82134649	-2.11691718	-23.02828779	-4.57998283	19.6179721	2.26392923	-27.95858477	29.68542859	14.64024955
7.31	-30.99346083	-2.00448426	-23.12211932	-4.59005093	19.96498588	2.10078259	-27.77394522	30.23186146	14.02410778
7.32	-31.17376818	-1.89516999	-23.22783873	-4.60244589	20.31105591	1.93624607	-27.5897455	30.78203394	13.41257377
7.33	-31.36186153	-1.78921992	-23.34498502	-4.61719736	20.6556669	1.77050806	-27.40532363	31.33473185	12.80699316
7.34	-31.5571929	-1.68671266	-23.47276848	-4.63425688	20.9985405	1.60367944	-27.22002437	31.88872105	12.20853233
7.35	-31.75909613	-1.58756012	-23.61011253	-4.6534966	21.33962756	1.43579532	-27.03320981	32.44276269	11.61821697
7.36	-31.96680682	-1.49151233	-23.7556907	-4.67471104	21.67909876	1.26681903	-26.84427331	32.99563101	11.0369768
7.37	-32.17947964	-1.39816701	-23.90795919	-4.69762159	22.01733302	1.09664809	-26.65265575	33.54613274	10.46569109
7.38	-32.39620382	-1.30698366	-24.06518717	-4.72188371	22.35490301	0.9251224	-26.45786275	34.0931276	9.90523036
7.39	-32.61601799	-1.21730196	-24.22548722	-4.74709643	22.69255653	0.75203426	-26.25948116	34.63554858	9.3564902
7.4	-32.83792547	-1.12836419	-24.38684856	-4.77281395	23.03119315	0.5771401	-26.05719313	35.17242145	8.82041465
7.41	-33.06091085	-1.0393413	-24.54717455	-4.79855892	23.3718355	0.40017365	-25.85078623	35.70288227	8.29800718
7.42	-33.28395801	-0.94936162	-24.7043251	-4.823837	23.71559582	0.22085991	-25.64015873	36.22619259	7.79032897
7.43	-33.50606963	-0.85754165	-24.85616304	-4.84815224	24.06363862	0.03892966	-25.42531951	36.74175138	7.29848502
7.44	-33.72628725	-0.76301741	-25.00060294	-4.87102277	24.417141	-0.14586638	-25.20638278	37.24910373	6.8235997
7.45	-33.94371101	-0.66497518	-25.13565954	-4.89199611	24.77725293	-0.33374428	-24.98355813	37.7479456	6.36678458
7.46	-34.15751796	-0.56267998	-25.25949309	-4.91066339	25.14505943	-0.52487514	-24.75713684	38.23812481	5.92910164
7.47	-34.3669777	-0.45550047	-25.37044892	-4.92667176	25.52154682	-0.71937564	-24.52747539	38.71963789	5.51152564
7.48	-34.57146478	-0.34292872	-25.46708941	-4.93973425	25.90757466	-0.91730117	-24.29497722	39.19262287	5.11490931
7.49	-34.77046723	-0.22459403	-25.54821722	-4.94963658	26.30385445	-1.11864209	-24.06007349	39.65734802	4.73995438
7.5	-34.96359133	-0.10027012	-25.61288976	-4.95624043	26.71093533	-1.32332313	-23.82320357	40.11419687	4.38719084
7.51	-35.15056275	0.03012431	-25.66042546	-4.95948321	27.1291967	-1.53120585	-23.58479575	40.56364998	4.0569657
7.52	-35.33122457	0.16653132	-25.69040286	-4.95937435	27.55884697	-1.74209387	-23.34524858	41.00626406	3.74944172
7.53	-35.50553255	0.30876498	-25.70265386	-4.95598857	27.99992761	-1.95574036	-23.10491339	41.44264968	3.46460505
7.54	-35.67354835	0.45652691	-25.69725222	-4.94945684	28.45232124	-2.17185722	-22.86407838	41.87344846	3.2022808
7.55	-35.83543091	0.6094249	-25.67449831	-4.93995559	28.91576295	-2.39012515	-22.62295519	42.29931124	2.96215417
7.56	-35.99142637	0.76699316	-25.63490071	-4.9276951	29.38985387	-2.61020407	-22.38166845	42.72087848	2.74379512
7.57	-36.14185679	0.92871322	-25.57915492	-4.91290779	29.87407639	-2.83174314	-22.14024899	43.13876391	2.5466844
7.58	-36.28710752	1.09403422	-25.50811919	-4.89583691	30.36781077	-3.05438996	-21.89863131	43.5535422	2.37023884
7.59	-36.42761346	1.26239216	-25.42278727	-4.87672624	30.87035317	-3.27779866	-21.65665528	43.96574118	2.21383445
7.6	-36.56384422	1.43322759	-25.32425783	-4.85581078	31.38093503	-3.5016366	-21.41407227	44.3758383	2.07682603
7.61	-36.69628822	1.6060017	-25.21370047	-4.83330884	31.89874422	-3.72558986	-21.17055508	44.78426121	1.95856287
7.62	-36.82543611	1.78021065	-25.09231879	-4.80941526	32.42294788	-3.94936733	-20.92571126	45.19139166	1.85840005
7.63	-36.95176402	1.95539825	-24.96131113	-4.78429581	32.95271681	-4.17270382	-20.67909871	45.59757201	1.77570555
7.64	-37.07571731	2.1311669	-24.82183084	-4.75808279	33.48725078	-4.39536207	-20.4302427	46.00311343	1.70986334
7.65	-37.19769589	2.30718663	-24.67494791	-4.73087162	34.02580364	-4.61713403	-20.17865293	46.40830502	1.66027269
7.66	-37.3180419	2.48320181	-24.52161487	-4.70271876	34.56770664	-4.83784124	-19.92383958	46.81342297	1.6263439
7.67	-37.43703094	2.65903508	-24.36263927	-4.67364086	35.11238828	-5.0573344	-19.66532737	47.2187394	1.60749079
7.68	-37.55486738	2.83458778	-24.19866535	-4.64361565	35.65938869	-5.275492	-19.4026668	47.62453017	1.60311996
7.69	-37.67168415	3.00983635	-24.03016639	-4.61258471	36.20836683	-5.49221773	-19.13544236	48.03108163	1.61261751
7.7	-37.78754684	3.18482414	-23.85744842	-4.58045836	36.75909939	-5.70743656	-18.86327751	48.43869589	1.63533363
7.71	-37.9024617	3.35964866	-23.6806649	-4.54712279	37.31147089	-5.92108938	-18.58583684	48.8476946	1.6705661
7.72	-38.01638639	3.53444457	-23.49984093	-4.51244926	37.8654552	-6.13312626	-18.30282577	49.25842089	1.71754413
7.73	-38.12924263	3.7093634	-23.31490477	-4.47630486	38.42108968	-6.34349856	-18.01398861	49.67123938	1.77541406
7.74	-38.24092938	3.88455131	-23.12572406	-4.43856419	38.9784439	-6.55215053	-17.71910546	50.08653406	1.84322864
7.75	-38.35133565	4.06012676	-22.93214398	-4.39912109	39.53758509	-6.75901094	-17.41798901	50.50470381	1.91994156
7.76	-38.46035197	4.2361599	-22.73402449	-4.35789935	40.09854335	-6.96398566	-17.11048153	50.92615582	2.00440857
7.77	-38.56787997	4.41265573	-22.53127436	-4.31486146	40.66127916	-7.16695188	-16.79645287	51.35129681	2.09539583
7.78	-38.67383977	4.5895425	-22.32387998	-4.27001455	41.225656	-7.36775498	-16.47579956	51.78052258	2.1915956
7.79	-38.77817504	4.76666683	-22.11192761	-4.22341272	41.79142	-7.56620825	-16.14844518	52.21420641	2.29164857
7.8	-38.88085608	4.94379595	-21.89561867	-4.17515564	42.35818821	-7.76209609	-15.81434191	52.65268692	2.39417122
7.81	-38.98188121	5.12062696	-21.67527788	-4.12538335	42.9254457	-7.95518037	-15.47347283	53.09625635	2.49778642
7.82	-39.08127695	5.29680218	-21.45135503	-4.07426783	43.49255149	-8.14520962	-15.12585496	53.54515005	2.60115453
7.83	-39.17909741	5.47192909	-21.22442123	-4.02200218	44.05875195	-8.33193027	-14.77154244	53.99953792	2.70300277
7.84	-39.27542326	5.6456027	-20.99516041	-3.96878854	44.62320033	-8.51509899	-14.41062987	54.45951847	2.80215032
7.85	-39.3703604	5.81742841	-20.7643572	-3.91482591	45.18498045	-8.69449501	-14.0432556	54.92511602	2.89752736
7.86	-39.46403844	5.98704296	-20.5328817	-3.86029913	45.74313287	-8.86993135	-13.66960528	55.39628093	2.98818701
7.87	-39.55660889	6.15413192	-20.30167195	-3.80537	46.29668158	-9.04126418	-13.28991559	55.87289307	3.07330968
7.88	-39.64824306	6.31844219	-20.07171452	-3.75017116	46.84466007	-9.20839949	-12.90447854	56.35476804	3.15220052
7.89	-39.73912949	6.47978891	-19.84402365	-3.69480332	47.38613534	-9.37129676	-12.51364651	56.84166575	3.22428119
7.9	-39.8294708	6.63805657	-19.61961963	-3.63933563	47.92022919	-9.52996956	-12.1178383	57.33330087	3.28907775
7.91	-39.91948003	6.79319474	-19.39950653	-3.58380914	48.44613634	-9.6844831	-11.71754622	57.82935434	3.34620668
7.92	-40.00937629	6.9452092	-19.18464991	-3.5282426	48.96313918	-9.83494925	-11.31334461	58.32948568	3.39536083
7.93	-40.09937968	7.09414956	-18.9759545	-3.47264017	49.47061948	-9.98151932	-10.90589976	58.83334534	3.43629702
7.94	-40.18970552	7.24009454	-18.77424207	-3.41700009	49.96806715	-10.12437516	-10.49598124	59.34058698	3.46882602
7.95	-40.28055771	7.3831361	-18.58022942	-3.36132381	50.45508678	-10.263719	-10.08447459	59.85087933	3.49280561
7.96	-40.3721213	7.52336364	-18.39450651	-3.3056247	50.93140237	-10.39976265	-9.67239475	60.36391741	3.50813637
7.97	-40.46455433	7.66084943	-18.21751486	-3.24993568	51.39686097	-10.53271638	-9.26089969	60.87943281	3.5147596
7.98	-40.55797915	7.79563622	-18.04952634	-3.19431529	51.85143578	-10.66277804	-8.85130303	61.39720266	3.51265659
7.99	-40.65247344	7.92772792	-17.89062286	-3.13885164	52.29522909	-10.79012294	-8.4450846	61.91705681	3.50184801
8	-40.74806146	8.05708393	-17.74067754	-3.08366386	52.72847541	-10.91489473	-8.04389731	62.43888277	3.48239257
8.01	-40.84470587	8.18361757	-17.59933845	-3.02890097	53.15154473	-11.03719773	-7.64956892	62.96262787	3.4543841
8.02	-40.94230089	8.30719879	-17.46601614	-2.97473794	53.56494551	-11.15709115	-7.2640968	63.48829819	3.4179465
8.03	-41.04066752	8.42766116	-17.33987694	-2.92136906	53.96932666	-11.2745855	-6.88963413	64.01595349	3.37322652
8.04	-41.13955155	8.54481316	-17.21984403	-2.86899869	54.36547735	-11.38964153	-6.52846565	64.54569792	3.32038427
8.05	-41.23862537	8.65845329	-17.10460859	-2.81782966	54.75432341	-11.50217222	-6.18297155	65.07766581	3.25958218
8.06	-41.33749394	8.76838849	-16.99265305	-2.76804973	55.13691857	-11.61204774	-5.8555783	65.61200257	3.19097293
8.07	-41.43570574	8.8744549	-16.88228807	-2.71981687	55.51442923	-11.71910384	-5.54869615	66.14884094	3.11468765
8.08	-41.53276857	8.97653948	-16.77170372	-2.67324432	55.88811167	-11.82315314	-5.26464369	66.68827325	3.03082543
8.09	-41.62817012	9.0746007	-16.6590344	-2.62838663	56.25928094	-11.92399906	-5.00556117	67.23032121	2.9394461
8.1	-41.72140267	9.1686863	-16.54243561	-2.58522823	56.62927173	-12.02145165	-4.77331558	67.77490503	2.84056746
8.11	-41.81199066	9.25894569	-16.42016909	-2.54367594	56.99939221	-12.11534437	-4.56940173	68.32181407	2.73416869
8.12	-41.89951965	9.34563526	-16.29069135	-2.50355687	57.37087302	-12.20555048	-4.394845	68.87068172	2.62020097
8.13	-41.98366445	9.42911465	-16.1527395	-2.46462272	57.74481422	-12.29199783	-4.25011258	69.42096682	2.49860551
